<svg width="170" height="67" viewBox="0 0 170 67" fill="none" xmlns="http://www.w3.org/2000/svg">
<path d="M30.6039 66.378L0.00799561 48.1582V35.7825L30.6039 54.0023V66.378Z" fill="#302C4D"/>
<path d="M61.1995 48.1582L30.6039 66.378V54.0023L61.1995 35.7825V48.1582Z" fill="#E66239"/>
<path d="M30.5955 0L0 18.2198V30.5955L30.5955 12.3757V0Z" fill="#657E92"/>
<path d="M61.191 18.2198L30.5955 0V12.3757L61.191 30.5955V18.2198Z" fill="#A3B2BE"/>
<path d="M30.6039 48.8457L0.00799561 30.6259V18.2498L30.6039 36.47V48.8457Z" fill="#302C4D"/>
<path d="M61.1995 30.6259L30.6039 48.8457V36.47L61.1995 18.2498V30.6259Z" fill="#E66239"/>
<path d="M77.6197 35.3693V14.9573H82.3437V35.3693H77.6197ZM96.4024 19.4479C97.6466 19.4479 98.7547 19.7006 99.7267 20.2061C100.718 20.6921 101.496 21.4502 102.059 22.4805C102.623 23.4914 102.905 24.7939 102.905 26.388V35.3693H98.3561V27.0878C98.3561 25.8242 98.0743 24.8911 97.5105 24.2885C96.9662 23.6858 96.1886 23.3845 95.1777 23.3845C94.4584 23.3845 93.8072 23.54 93.224 23.8511C92.6602 24.1427 92.2131 24.5995 91.8826 25.2216C91.5716 25.8437 91.4161 26.6407 91.4161 27.6127V35.3693H86.8671V19.6812H91.2119V24.026L90.3955 22.7138C90.9592 21.6641 91.766 20.8573 92.8157 20.2935C93.8655 19.7298 95.0611 19.4479 96.4024 19.4479Z" fill="#302C4D"/>
<path d="M104.667 35.3693L113.764 14.9573H118.43L127.557 35.3693H122.6L115.135 17.3484H117.001L109.507 35.3693H104.667ZM109.216 30.9953L110.469 27.4086H120.967L122.25 30.9953H109.216ZM138.627 35.6025C137.305 35.6025 136.148 35.3109 135.157 34.7277C134.166 34.1445 133.388 33.26 132.824 32.0742C132.28 30.8689 132.008 29.3526 132.008 27.5252C132.008 25.6784 132.27 24.1621 132.795 22.9763C133.32 21.7904 134.078 20.9059 135.069 20.3227C136.061 19.7395 137.247 19.4479 138.627 19.4479C140.104 19.4479 141.426 19.7881 142.593 20.4685C143.779 21.1295 144.712 22.0626 145.392 23.2679C146.092 24.4731 146.442 25.8923 146.442 27.5252C146.442 29.1776 146.092 30.6065 145.392 31.8117C144.712 33.017 143.779 33.9501 142.593 34.6111C141.426 35.2721 140.104 35.6025 138.627 35.6025ZM129.354 41.0263V19.6812H133.699V22.8888L133.611 27.5544L133.903 32.1908V41.0263H129.354ZM137.84 31.8701C138.598 31.8701 139.269 31.6951 139.852 31.3452C140.454 30.9953 140.931 30.4995 141.281 29.858C141.65 29.1971 141.835 28.4195 141.835 27.5252C141.835 26.6115 141.65 25.8339 141.281 25.1924C140.931 24.5509 140.454 24.0552 139.852 23.7053C139.269 23.3553 138.598 23.1804 137.84 23.1804C137.082 23.1804 136.401 23.3553 135.798 23.7053C135.196 24.0552 134.72 24.5509 134.37 25.1924C134.02 25.8339 133.845 26.6115 133.845 27.5252C133.845 28.4195 134.02 29.1971 134.37 29.858C134.72 30.4995 135.196 30.9953 135.798 31.3452C136.401 31.6951 137.082 31.8701 137.84 31.8701ZM158.76 35.6025C157.438 35.6025 156.281 35.3109 155.29 34.7277C154.298 34.1445 153.521 33.26 152.957 32.0742C152.413 30.8689 152.141 29.3526 152.141 27.5252C152.141 25.6784 152.403 24.1621 152.928 22.9763C153.453 21.7904 154.211 20.9059 155.202 20.3227C156.194 19.7395 157.38 19.4479 158.76 19.4479C160.237 19.4479 161.559 19.7881 162.726 20.4685C163.912 21.1295 164.845 22.0626 165.525 23.2679C166.225 24.4731 166.575 25.8923 166.575 27.5252C166.575 29.1776 166.225 30.6065 165.525 31.8117C164.845 33.017 163.912 33.9501 162.726 34.6111C161.559 35.2721 160.237 35.6025 158.76 35.6025ZM149.487 41.0263V19.6812H153.832V22.8888L153.744 27.5544L154.036 32.1908V41.0263H149.487ZM157.973 31.8701C158.731 31.8701 159.401 31.6951 159.985 31.3452C160.587 30.9953 161.064 30.4995 161.414 29.858C161.783 29.1971 161.968 28.4195 161.968 27.5252C161.968 26.6115 161.783 25.8339 161.414 25.1924C161.064 24.5509 160.587 24.0552 159.985 23.7053C159.401 23.3553 158.731 23.1804 157.973 23.1804C157.214 23.1804 156.534 23.3553 155.931 23.7053C155.329 24.0552 154.853 24.5509 154.503 25.1924C154.153 25.8339 153.978 26.6115 153.978 27.5252C153.978 28.4195 154.153 29.1971 154.503 29.858C154.853 30.4995 155.329 30.9953 155.931 31.3452C156.534 31.6951 157.214 31.8701 157.973 31.8701Z" fill="#E66239"/>
<path d="M76.5603 56.0087V46.9367H77.8563V56.0087H76.5603ZM84.0585 49.0751C84.6201 49.0751 85.1126 49.1831 85.536 49.3991C85.968 49.6151 86.3049 49.9434 86.5469 50.384C86.7888 50.8247 86.9097 51.3819 86.9097 52.0559V56.0087H85.6656V52.1984C85.6656 51.5331 85.5014 51.032 85.1731 50.6951C84.8534 50.3581 84.3998 50.1896 83.8123 50.1896C83.3717 50.1896 82.9872 50.276 82.6589 50.4488C82.3305 50.6216 82.0757 50.8765 81.8942 51.2135C81.7214 51.5504 81.635 51.9695 81.635 52.4706V56.0087H80.3909V49.1399H81.5832V50.9931L81.3888 50.5007C81.6134 50.0514 81.959 49.7015 82.4256 49.4509C82.8921 49.2003 83.4365 49.0751 84.0585 49.0751ZM90.8871 56.0087L87.8804 49.1399H89.1764L91.8462 55.3607H91.2241L93.9457 49.1399H95.1639L92.1572 56.0087H90.8871ZM99.1938 56.0864C98.4594 56.0864 97.8114 55.9352 97.2498 55.6328C96.6968 55.3304 96.2648 54.9157 95.9538 54.3887C95.6514 53.8616 95.5002 53.2568 95.5002 52.5743C95.5002 51.8917 95.6471 51.2869 95.9408 50.7599C96.2432 50.2328 96.6536 49.8224 97.172 49.5287C97.6991 49.2263 98.2909 49.0751 98.9476 49.0751C99.6128 49.0751 100.2 49.2219 100.71 49.5157C101.22 49.8095 101.617 50.2242 101.902 50.7599C102.196 51.2869 102.343 51.9047 102.343 52.6131C102.343 52.665 102.339 52.7255 102.33 52.7946C102.33 52.8637 102.326 52.9285 102.317 52.989H96.4722V52.0947H101.669L101.164 52.4058C101.172 51.9651 101.082 51.572 100.892 51.2264C100.701 50.8808 100.438 50.613 100.101 50.4229C99.7727 50.2242 99.3882 50.1248 98.9476 50.1248C98.5155 50.1248 98.1311 50.2242 97.7941 50.4229C97.4571 50.613 97.1936 50.8851 97.0035 51.2394C96.8135 51.585 96.7184 51.9824 96.7184 52.4317V52.6391C96.7184 53.097 96.8221 53.5074 97.0295 53.8703C97.2455 54.2245 97.5435 54.501 97.9237 54.6997C98.3039 54.8984 98.7402 54.9978 99.2327 54.9978C99.6387 54.9978 100.006 54.9287 100.334 54.7904C100.671 54.6522 100.965 54.4448 101.216 54.1683L101.902 54.9719C101.591 55.3347 101.203 55.6112 100.736 55.8013C100.278 55.9914 99.764 56.0864 99.1938 56.0864ZM107.738 49.0751C108.3 49.0751 108.792 49.1831 109.216 49.3991C109.648 49.6151 109.985 49.9434 110.227 50.384C110.469 50.8247 110.59 51.3819 110.59 52.0559V56.0087H109.345V52.1984C109.345 51.5331 109.181 51.032 108.853 50.6951C108.533 50.3581 108.08 50.1896 107.492 50.1896C107.051 50.1896 106.667 50.276 106.339 50.4488C106.01 50.6216 105.755 50.8765 105.574 51.2135C105.401 51.5504 105.315 51.9695 105.315 52.4706V56.0087H104.071V49.1399H105.263V50.9931L105.069 50.5007C105.293 50.0514 105.639 49.7015 106.105 49.4509C106.572 49.2003 107.116 49.0751 107.738 49.0751ZM115.251 56.0864C114.56 56.0864 114.024 55.9007 113.644 55.5291C113.264 55.1576 113.074 54.6263 113.074 53.9351V47.6365H114.318V53.8832C114.318 54.2547 114.408 54.5399 114.59 54.7386C114.78 54.9373 115.048 55.0367 115.393 55.0367C115.782 55.0367 116.106 54.9287 116.365 54.7127L116.754 55.6069C116.564 55.7711 116.335 55.892 116.067 55.9698C115.808 56.0475 115.536 56.0864 115.251 56.0864ZM111.907 50.1637V49.1399H116.288V50.1637H111.907ZM120.972 56.0864C120.281 56.0864 119.668 55.9352 119.132 55.6328C118.596 55.3304 118.173 54.9157 117.862 54.3887C117.551 53.853 117.396 53.2482 117.396 52.5743C117.396 51.8917 117.551 51.2869 117.862 50.7599C118.173 50.2328 118.596 49.8224 119.132 49.5287C119.668 49.2263 120.281 49.0751 120.972 49.0751C121.655 49.0751 122.264 49.2263 122.8 49.5287C123.344 49.8224 123.768 50.2328 124.07 50.7599C124.381 51.2783 124.536 51.8831 124.536 52.5743C124.536 53.2568 124.381 53.8616 124.07 54.3887C123.768 54.9157 123.344 55.3304 122.8 55.6328C122.264 55.9352 121.655 56.0864 120.972 56.0864ZM120.972 54.9978C121.413 54.9978 121.806 54.8984 122.152 54.6997C122.506 54.501 122.783 54.2202 122.981 53.8573C123.18 53.4858 123.279 53.0581 123.279 52.5743C123.279 52.0818 123.18 51.6584 122.981 51.3042C122.783 50.9413 122.506 50.6605 122.152 50.4618C121.806 50.2631 121.413 50.1637 120.972 50.1637C120.532 50.1637 120.139 50.2631 119.793 50.4618C119.448 50.6605 119.171 50.9413 118.964 51.3042C118.756 51.6584 118.653 52.0818 118.653 52.5743C118.653 53.0581 118.756 53.4858 118.964 53.8573C119.171 54.2202 119.448 54.501 119.793 54.6997C120.139 54.8984 120.532 54.9978 120.972 54.9978ZM126.257 56.0087V49.1399H127.449V51.0061L127.333 50.5395C127.523 50.0643 127.843 49.7015 128.292 49.4509C128.741 49.2003 129.294 49.0751 129.951 49.0751V50.2803C129.899 50.2717 129.847 50.2674 129.795 50.2674C129.752 50.2674 129.709 50.2674 129.666 50.2674C129 50.2674 128.473 50.4661 128.084 50.8635C127.696 51.261 127.501 51.8355 127.501 52.5872V56.0087H126.257ZM132.061 58.6007C131.732 58.6007 131.413 58.5445 131.102 58.4322C130.791 58.3285 130.523 58.173 130.298 57.9656L130.829 57.0325C131.002 57.1967 131.192 57.3219 131.4 57.4083C131.607 57.4947 131.827 57.5379 132.061 57.5379C132.363 57.5379 132.614 57.4602 132.812 57.3047C133.011 57.1491 133.197 56.8727 133.37 56.4752L133.797 55.5291L133.927 55.3736L136.623 49.1399H137.841L134.51 56.6955C134.311 57.1794 134.087 57.5595 133.836 57.836C133.594 58.1125 133.326 58.3069 133.033 58.4192C132.739 58.5402 132.415 58.6007 132.061 58.6007ZM133.694 56.229L130.557 49.1399H131.853L134.523 55.257L133.694 56.229ZM141.29 56.0087L145.398 46.9367H146.681L150.803 56.0087H149.442L145.774 47.6624H146.293L142.625 56.0087H141.29ZM143.04 53.7407L143.39 52.7039H148.496L148.872 53.7407H143.04ZM155.616 56.0864C155.046 56.0864 154.523 55.9568 154.048 55.6976C153.582 55.4298 153.206 55.0367 152.921 54.5183C152.644 53.9999 152.506 53.3519 152.506 52.5743C152.506 51.7967 152.64 51.1487 152.908 50.6303C153.184 50.1119 153.556 49.7231 154.022 49.4639C154.497 49.2047 155.029 49.0751 155.616 49.0751C156.29 49.0751 156.886 49.2219 157.405 49.5157C157.923 49.8095 158.334 50.2199 158.636 50.7469C158.938 51.2653 159.09 51.8744 159.09 52.5743C159.09 53.2741 158.938 53.8875 158.636 54.4146C158.334 54.9416 157.923 55.352 157.405 55.6458C156.886 55.9395 156.29 56.0864 155.616 56.0864ZM151.975 58.5229V49.1399H153.167V50.9931L153.089 52.5872L153.219 54.1813V58.5229H151.975ZM155.513 54.9978C155.953 54.9978 156.346 54.8984 156.692 54.6997C157.046 54.501 157.323 54.2202 157.521 53.8573C157.729 53.4858 157.833 53.0581 157.833 52.5743C157.833 52.0818 157.729 51.6584 157.521 51.3042C157.323 50.9413 157.046 50.6605 156.692 50.4618C156.346 50.2631 155.953 50.1637 155.513 50.1637C155.081 50.1637 154.688 50.2631 154.333 50.4618C153.988 50.6605 153.711 50.9413 153.504 51.3042C153.305 51.6584 153.206 52.0818 153.206 52.5743C153.206 53.0581 153.305 53.4858 153.504 53.8573C153.711 54.2202 153.988 54.501 154.333 54.6997C154.688 54.8984 155.081 54.9978 155.513 54.9978ZM164.45 56.0864C163.88 56.0864 163.357 55.9568 162.882 55.6976C162.416 55.4298 162.04 55.0367 161.755 54.5183C161.478 53.9999 161.34 53.3519 161.34 52.5743C161.34 51.7967 161.474 51.1487 161.742 50.6303C162.018 50.1119 162.39 49.7231 162.856 49.4639C163.332 49.2047 163.863 49.0751 164.45 49.0751C165.124 49.0751 165.721 49.2219 166.239 49.5157C166.757 49.8095 167.168 50.2199 167.47 50.7469C167.773 51.2653 167.924 51.8744 167.924 52.5743C167.924 53.2741 167.773 53.8875 167.47 54.4146C167.168 54.9416 166.757 55.352 166.239 55.6458C165.721 55.9395 165.124 56.0864 164.45 56.0864ZM160.809 58.5229V49.1399H162.001V50.9931L161.923 52.5872L162.053 54.1813V58.5229H160.809ZM164.347 54.9978C164.787 54.9978 165.181 54.8984 165.526 54.6997C165.88 54.501 166.157 54.2202 166.356 53.8573C166.563 53.4858 166.667 53.0581 166.667 52.5743C166.667 52.0818 166.563 51.6584 166.356 51.3042C166.157 50.9413 165.88 50.6605 165.526 50.4618C165.181 50.2631 164.787 50.1637 164.347 50.1637C163.915 50.1637 163.522 50.2631 163.167 50.4618C162.822 50.6605 162.545 50.9413 162.338 51.3042C162.139 51.6584 162.04 52.0818 162.04 52.5743C162.04 53.0581 162.139 53.4858 162.338 53.8573C162.545 54.2202 162.822 54.501 163.167 54.6997C163.522 54.8984 163.915 54.9978 164.347 54.9978Z" fill="#A3B2BE"/>
</svg>
