<svg width="60" height="26" viewBox="0 0 60 26" fill="none" xmlns="http://www.w3.org/2000/svg">
<path d="M1 13V0H3.98925V13H1ZM12.8853 2.85997C13.6726 2.85997 14.3738 3.02091 14.9888 3.34286C15.6161 3.65238 16.1084 4.1352 16.4647 4.79138C16.8216 5.4352 17 6.26474 17 7.27999V13H14.1216V7.72567C14.1216 6.92091 13.9432 6.32664 13.5865 5.94286C13.2421 5.55901 12.75 5.36712 12.1103 5.36712C11.6552 5.36712 11.2431 5.46615 10.8741 5.66429C10.5173 5.85 10.2344 6.14093 10.0253 6.53713C9.82847 6.93333 9.73007 7.44093 9.73007 8.05997V13H6.85156V3.00856H9.60086V5.77567L9.08426 4.93996C9.44095 4.27143 9.95148 3.75759 10.6157 3.39852C11.28 3.03951 12.0365 2.85997 12.8853 2.85997Z" fill="#302C4D"/>
<path d="M18 13.311L24.0247 0H27.1149L33.1594 13.311H29.8765L24.9327 1.55927H26.1685L21.2054 13.311H18ZM21.0127 10.4586L21.8425 8.11969H28.7951L29.6447 10.4586H21.0127ZM40.4908 13.4631C39.6153 13.4631 38.849 13.2729 38.1927 12.8926C37.5364 12.5123 37.0211 11.9355 36.6476 11.1622C36.2874 10.3762 36.1072 9.3874 36.1072 8.19572C36.1072 6.9914 36.2807 6.00259 36.6284 5.22931C36.9761 4.45597 37.4781 3.87917 38.1344 3.49886C38.7914 3.11855 39.5769 2.92839 40.4908 2.92839C41.469 2.92839 42.3445 3.15024 43.1174 3.59394C43.9028 4.02499 44.5207 4.63348 44.9711 5.41947C45.4347 6.2054 45.6665 7.13088 45.6665 8.19572C45.6665 9.27328 45.4347 10.2051 44.9711 10.991C44.5207 11.777 43.9028 12.3855 43.1174 12.8165C42.3445 13.2476 41.469 13.4631 40.4908 13.4631ZM34.3495 17V3.08053H37.2271V5.17225L37.1688 8.21476L37.3622 11.2382V17H34.3495ZM39.9696 11.0291C40.4716 11.0291 40.916 10.915 41.3021 10.6868C41.7008 10.4586 42.0167 10.1353 42.2485 9.71698C42.4929 9.286 42.6154 8.77891 42.6154 8.19572C42.6154 7.59989 42.4929 7.0928 42.2485 6.67447C42.0167 6.25614 41.7008 5.93288 41.3021 5.70471C40.916 5.47647 40.4716 5.36241 39.9696 5.36241C39.4676 5.36241 39.0166 5.47647 38.6172 5.70471C38.2185 5.93288 37.9033 6.25614 37.6715 6.67447C37.4397 7.0928 37.3238 7.59989 37.3238 8.19572C37.3238 8.77891 37.4397 9.286 37.6715 9.71698C37.9033 10.1353 38.2185 10.4586 38.6172 10.6868C39.0166 10.915 39.4676 11.0291 39.9696 11.0291ZM53.8243 13.4631C52.9488 13.4631 52.1826 13.2729 51.5262 12.8926C50.8693 12.5123 50.3547 11.9355 49.9812 11.1622C49.6209 10.3762 49.4408 9.3874 49.4408 8.19572C49.4408 6.9914 49.6143 6.00259 49.962 5.22931C50.3097 4.45597 50.8117 3.87917 51.468 3.49886C52.1249 3.11855 52.9104 2.92839 53.8243 2.92839C54.8025 2.92839 55.678 3.15024 56.4509 3.59394C57.2364 4.02499 57.8543 4.63348 58.3046 5.41947C58.7682 6.2054 59 7.13088 59 8.19572C59 9.27328 58.7682 10.2051 58.3046 10.991C57.8543 11.777 57.2364 12.3855 56.4509 12.8165C55.678 13.2476 54.8025 13.4631 53.8243 13.4631ZM47.6831 17V3.08053H50.5607V5.17225L50.5024 8.21476L50.6958 11.2382V17H47.6831ZM53.3031 11.0291C53.8051 11.0291 54.2489 10.915 54.6356 10.6868C55.0343 10.4586 55.3502 10.1353 55.582 9.71698C55.8264 9.286 55.9489 8.77891 55.9489 8.19572C55.9489 7.59989 55.8264 7.0928 55.582 6.67447C55.3502 6.25614 55.0343 5.93288 54.6356 5.70471C54.2489 5.47647 53.8051 5.36241 53.3031 5.36241C52.8005 5.36241 52.3501 5.47647 51.9508 5.70471C51.5521 5.93288 51.2368 6.25614 51.005 6.67447C50.7733 7.0928 50.6573 7.59989 50.6573 8.19572C50.6573 8.77891 50.7733 9.286 51.005 9.71698C51.2368 10.1353 51.5521 10.4586 51.9508 10.6868C52.3501 10.915 52.8005 11.0291 53.3031 11.0291Z" fill="#E66239"/>
<path d="M0 24.2222V18H0.851102V24.2222H0ZM4.92419 19.4667C5.293 19.4667 5.61643 19.5407 5.89449 19.6889C6.17819 19.837 6.39943 20.0622 6.55836 20.3644C6.71722 20.6667 6.79661 21.0488 6.79661 21.5111V24.2222H5.9796V21.6088C5.9796 21.1525 5.87176 20.8088 5.65616 20.5778C5.44621 20.3466 5.14832 20.2311 4.7625 20.2311C4.47315 20.2311 4.22064 20.2903 4.00504 20.4088C3.78938 20.5274 3.62205 20.7022 3.50286 20.9333C3.38938 21.1644 3.33264 21.4519 3.33264 21.7955V24.2222H2.51561V19.5111H3.29862V20.7822L3.17095 20.4444C3.31845 20.1363 3.54541 19.8963 3.85183 19.7244C4.15819 19.5525 4.51571 19.4667 4.92419 19.4667ZM9.40864 24.2222L7.43409 19.5111H8.28519L10.0385 23.7778H9.62995L11.4173 19.5111H12.2173L10.2427 24.2222H9.40864ZM14.8638 24.2755C14.3815 24.2755 13.9559 24.1718 13.5871 23.9644C13.224 23.757 12.9403 23.4726 12.736 23.1111C12.5374 22.7496 12.4381 22.3348 12.4381 21.8667C12.4381 21.3985 12.5346 20.9837 12.7275 20.6222C12.9261 20.2607 13.1956 19.9792 13.536 19.7778C13.8822 19.5704 14.2708 19.4667 14.7021 19.4667C15.1389 19.4667 15.5246 19.5674 15.8595 19.7689C16.1944 19.9704 16.4551 20.2548 16.6423 20.6222C16.8354 20.9837 16.9319 21.4074 16.9319 21.8933C16.9319 21.9289 16.9293 21.9704 16.9234 22.0178C16.9234 22.0652 16.9207 22.1096 16.9148 22.1511H13.0765V21.5377H16.4893L16.1576 21.7511C16.1629 21.4488 16.1038 21.1792 15.979 20.9422C15.8536 20.7051 15.6809 20.5215 15.4596 20.3911C15.244 20.2548 14.9914 20.1866 14.7021 20.1866C14.4183 20.1866 14.1659 20.2548 13.9446 20.3911C13.7233 20.5215 13.5502 20.7081 13.4254 20.9511C13.3006 21.1881 13.2381 21.4607 13.2381 21.7689V21.9111C13.2381 22.2252 13.3062 22.5067 13.4425 22.7556C13.5843 22.9985 13.78 23.1881 14.0297 23.3244C14.2794 23.4607 14.5659 23.5289 14.8893 23.5289C15.1559 23.5289 15.3972 23.4815 15.6126 23.3866C15.8339 23.2918 16.027 23.1496 16.1918 22.9599L16.6423 23.5111C16.4381 23.7599 16.1833 23.9496 15.8766 24.08C15.5758 24.2104 15.2382 24.2755 14.8638 24.2755ZM20.4749 19.4667C20.844 19.4667 21.1671 19.5407 21.4455 19.6889C21.7292 19.837 21.9505 20.0622 22.1095 20.3644C22.2684 20.6667 22.3478 21.0488 22.3478 21.5111V24.2222H21.5302V21.6088C21.5302 21.1525 21.4225 20.8088 21.2071 20.5778C20.997 20.3466 20.6995 20.2311 20.3133 20.2311C20.0237 20.2311 19.7715 20.2903 19.5561 20.4088C19.3401 20.5274 19.1726 20.7022 19.0538 20.9333C18.9401 21.1644 18.8837 21.4519 18.8837 21.7955V24.2222H18.0667V19.5111H18.8495V20.7822L18.7221 20.4444C18.8692 20.1363 19.0964 19.8963 19.4025 19.7244C19.7092 19.5525 20.0664 19.4667 20.4749 19.4667ZM25.4088 24.2755C24.955 24.2755 24.603 24.1481 24.3535 23.8933C24.1039 23.6385 23.9791 23.2741 23.9791 22.8V18.48H24.7961V22.7644C24.7961 23.0192 24.8552 23.2148 24.9747 23.3511C25.0995 23.4874 25.2755 23.5556 25.5021 23.5556C25.7575 23.5556 25.9703 23.4815 26.1404 23.3333L26.3958 23.9466C26.2711 24.0593 26.1207 24.1422 25.9447 24.1955C25.7746 24.2488 25.596 24.2755 25.4088 24.2755ZM23.2127 20.2133V19.5111H26.0898V20.2133H23.2127ZM29.1659 24.2755C28.7121 24.2755 28.3095 24.1718 27.9575 23.9644C27.6055 23.757 27.3277 23.4726 27.1235 23.1111C26.9192 22.7437 26.8175 22.3289 26.8175 21.8667C26.8175 21.3985 26.9192 20.9837 27.1235 20.6222C27.3277 20.2607 27.6055 19.9792 27.9575 19.7778C28.3095 19.5704 28.7121 19.4667 29.1659 19.4667C29.6144 19.4667 30.0144 19.5704 30.3664 19.7778C30.7236 19.9792 31.0021 20.2607 31.2004 20.6222C31.4046 20.9778 31.5064 21.3926 31.5064 21.8667C31.5064 22.3348 31.4046 22.7496 31.2004 23.1111C31.0021 23.4726 30.7236 23.757 30.3664 23.9644C30.0144 24.1718 29.6144 24.2755 29.1659 24.2755ZM29.1659 23.5289C29.4555 23.5289 29.7136 23.4607 29.9408 23.3244C30.1733 23.1881 30.3552 22.9955 30.4852 22.7466C30.6159 22.4918 30.6809 22.1985 30.6809 21.8667C30.6809 21.5289 30.6159 21.2385 30.4852 20.9955C30.3552 20.7466 30.1733 20.554 29.9408 20.4178C29.7136 20.2815 29.4555 20.2133 29.1659 20.2133C28.8769 20.2133 28.6188 20.2815 28.3916 20.4178C28.165 20.554 27.9831 20.7466 27.8472 20.9955C27.7106 21.2385 27.6429 21.5289 27.6429 21.8667C27.6429 22.1985 27.7106 22.4918 27.8472 22.7466C27.9831 22.9955 28.165 23.1881 28.3916 23.3244C28.6188 23.4607 28.8769 23.5289 29.1659 23.5289ZM32.6366 24.2222V19.5111H33.4194V20.7911L33.3432 20.4711C33.468 20.1451 33.6782 19.8963 33.973 19.7244C34.2679 19.5525 34.6311 19.4667 35.0625 19.4667V20.2933C35.0284 20.2874 34.9942 20.2844 34.9601 20.2844C34.9318 20.2844 34.9036 20.2844 34.8754 20.2844C34.438 20.2844 34.0919 20.4207 33.8364 20.6933C33.5816 20.9659 33.4536 21.3599 33.4536 21.8755V24.2222H32.6366ZM36.4482 26C36.2321 26 36.0226 25.9615 35.8184 25.8844C35.6142 25.8133 35.4382 25.7067 35.2904 25.5644L35.6391 24.9244C35.7527 25.037 35.8775 25.1229 36.0141 25.1822C36.15 25.2414 36.2945 25.2711 36.4482 25.2711C36.6465 25.2711 36.8114 25.2178 36.9414 25.1111C37.0721 25.0044 37.1942 24.8148 37.3078 24.5422L37.5883 23.8933L37.6736 23.7866L39.4441 19.5111H40.244L38.0565 24.6933C37.9258 25.0252 37.7787 25.2859 37.6139 25.4755C37.4549 25.6652 37.2789 25.7985 37.0865 25.8755C36.8935 25.9585 36.6807 26 36.4482 26ZM37.5206 24.3733L35.4605 19.5111H36.3116L38.065 23.7067L37.5206 24.3733ZM42.509 24.2222L45.2068 18H46.0494L48.7564 24.2222H47.8626L45.4537 18.4977H45.7946L43.3857 24.2222H42.509ZM43.6583 22.6667L43.8881 21.9556H47.2413L47.4882 22.6667H43.6583ZM51.9171 24.2755C51.5428 24.2755 51.1994 24.1866 50.8874 24.0088C50.5814 23.8252 50.3345 23.5556 50.1473 23.2C49.9654 22.8444 49.8748 22.4 49.8748 21.8667C49.8748 21.3333 49.9628 20.8889 50.1388 20.5333C50.32 20.1778 50.5643 19.9111 50.8703 19.7333C51.1823 19.5556 51.5316 19.4667 51.9171 19.4667C52.3598 19.4667 52.7512 19.5674 53.092 19.7689C53.4322 19.9704 53.7021 20.2519 53.9004 20.6133C54.0988 20.9689 54.1986 21.3866 54.1986 21.8667C54.1986 22.3466 54.0988 22.7674 53.9004 23.1289C53.7021 23.4903 53.4322 23.7718 53.092 23.9733C52.7512 24.1748 52.3598 24.2755 51.9171 24.2755ZM49.526 25.9466V19.5111H50.3088V20.7822L50.2576 21.8755L50.343 22.9689V25.9466H49.526ZM51.8495 23.5289C52.1385 23.5289 52.3965 23.4607 52.6238 23.3244C52.8562 23.1881 53.0382 22.9955 53.1682 22.7466C53.3048 22.4918 53.3731 22.1985 53.3731 21.8667C53.3731 21.5289 53.3048 21.2385 53.1682 20.9955C53.0382 20.7466 52.8562 20.554 52.6238 20.4178C52.3965 20.2815 52.1385 20.2133 51.8495 20.2133C51.5658 20.2133 51.3077 20.2815 51.0746 20.4178C50.848 20.554 50.6661 20.7466 50.5302 20.9955C50.3995 21.2385 50.3344 21.5289 50.3344 21.8667C50.3344 22.1985 50.3995 22.4918 50.5302 22.7466C50.6661 22.9955 50.848 23.1881 51.0746 23.3244C51.3077 23.4607 51.5658 23.5289 51.8495 23.5289ZM57.7186 24.2755C57.3442 24.2755 57.0008 24.1866 56.6888 24.0088C56.3828 23.8252 56.1359 23.5556 55.9487 23.2C55.7668 22.8444 55.6762 22.4 55.6762 21.8667C55.6762 21.3333 55.7642 20.8889 55.9402 20.5333C56.1214 20.1778 56.3657 19.9111 56.6718 19.7333C56.9844 19.5556 57.3331 19.4667 57.7186 19.4667C58.1612 19.4667 58.5533 19.5674 58.8934 19.7689C59.2336 19.9704 59.5035 20.2519 59.7019 20.6133C59.9008 20.9689 60 21.3866 60 21.8667C60 22.3466 59.9008 22.7674 59.7019 23.1289C59.5035 23.4903 59.2336 23.7718 58.8934 23.9733C58.5533 24.1748 58.1612 24.2755 57.7186 24.2755ZM55.3275 25.9466V19.5111H56.1103V20.7822L56.0591 21.8755L56.1444 22.9689V25.9466H55.3275ZM57.6509 23.5289C57.9399 23.5289 58.1986 23.4607 58.4252 23.3244C58.6577 23.1881 58.8396 22.9955 58.9703 22.7466C59.1062 22.4918 59.1745 22.1985 59.1745 21.8667C59.1745 21.5289 59.1062 21.2385 58.9703 20.9955C58.8396 20.7466 58.6577 20.554 58.4252 20.4178C58.1986 20.2815 57.9399 20.2133 57.6509 20.2133C57.3672 20.2133 57.1091 20.2815 56.876 20.4178C56.6494 20.554 56.4675 20.7466 56.3316 20.9955C56.2009 21.2385 56.1359 21.5289 56.1359 21.8667C56.1359 22.1985 56.2009 22.4918 56.3316 22.7466C56.4675 22.9955 56.6494 23.1881 56.876 23.3244C57.1091 23.4607 57.3672 23.5289 57.6509 23.5289Z" fill="#A3B2BE"/>
</svg>
